<?xml version="1.0" standalone="no"?>
<!DOCTYPE svg PUBLIC "-//W3C//DTD SVG 20010904//EN"
 "http://www.w3.org/TR/2001/REC-SVG-20010904/DTD/svg10.dtd">
<svg version="1.0" xmlns="http://www.w3.org/2000/svg"
 width="498.000000pt" height="280.000000pt" viewBox="0 0 498.000000 280.000000"
 preserveAspectRatio="xMidYMid meet">

<g transform="translate(0.000000,280.000000) scale(0.100000,-0.100000)"
fill="#000000" stroke="none">
<path d="M2410 1120 c-57 -7 -87 -24 -127 -70 -25 -28 -41 -37 -67 -38 -20 -1
-57 -12 -83 -26 -71 -35 -83 -67 -83 -219 1 -229 23 -317 81 -317 35 0 59 -32
59 -80 0 -24 3 -31 9 -21 8 12 15 11 50 -3 34 -13 78 -16 239 -16 108 0 214 4
235 9 30 7 40 6 44 -5 8 -23 43 -17 43 7 0 18 4 20 33 15 l32 -6 -33 15 c-29
14 -33 20 -30 48 3 28 7 32 36 35 20 2 38 12 47 25 19 29 35 167 35 300 0 119
-13 165 -57 203 -25 21 -91 44 -129 44 -9 0 -41 23 -71 50 -39 36 -63 50 -86
51 -83 4 -136 4 -177 -1z m189 -40 c46 -12 65 -45 37 -66 -20 -14 -225 -19
-271 -6 -52 15 -42 59 16 71 56 12 175 13 218 1z m51 -178 c24 -19 30 -66 12
-84 -15 -15 -61 -13 -77 3 -27 28 -22 77 8 89 31 12 32 12 57 -8z"/>
<path d="M2375 1056 c-19 -14 -13 -36 9 -36 8 0 19 6 25 14 18 21 -10 40 -34
22z"/>
<path d="M2570 1046 c0 -18 30 -30 43 -17 5 5 6 14 3 20 -10 16 -46 13 -46 -3z"/>
<path d="M2592 878 c-14 -14 -16 -32 -3 -23 5 3 12 1 16 -5 3 -5 0 -10 -7 -11
-7 0 -2 -5 11 -10 31 -12 56 9 46 40 -7 23 -43 29 -63 9z"/>
</g>
</svg>
